<svg width="88" height="88" viewBox="0 0 88 88" fill="none" xmlns="http://www.w3.org/2000/svg">
<path d="M2.63098 50.3517C-0.876996 46.8438 -0.876992 41.1562 2.63098 37.6482L37.6483 2.63098C41.1562 -0.876997 46.8438 -0.876991 50.3518 2.63098L85.369 37.6483C88.877 41.1562 88.877 46.8438 85.369 50.3518L50.3517 85.369C46.8438 88.877 41.1562 88.877 37.6482 85.369L2.63098 50.3517Z" fill="#7a89fe" fill-opacity="0.15"/>
<path d="M62.1684 42C60.7952 44.8055 58.7963 47.3159 55.9594 49.1482C53.0168 51.0486 49.1258 52.25 44 52.25C38.8742 52.25 34.9832 51.0486 32.0406 49.1482C29.2037 47.3159 27.2048 44.8055 25.8316 42C27.2048 39.1945 29.2037 36.6841 32.0406 34.8518C34.9832 32.9514 38.8742 31.75 44 31.75C49.1258 31.75 53.0168 32.9514 55.9594 34.8518C58.7963 36.6841 60.7952 39.1945 62.1684 42Z" stroke="#3f51b5" stroke-width="1.5"/>
<path d="M28 30V26H32" stroke="#3f51b5" stroke-width="1.5"/>
<path d="M28 54V58H32" stroke="#3f51b5" stroke-width="1.5"/>
<path d="M60 30V26H56" stroke="#3f51b5" stroke-width="1.5"/>
<path d="M60 54V58H56" stroke="#3f51b5" stroke-width="1.5"/>
<circle cx="44" cy="42" r="10.25" stroke="#3f51b5" stroke-width="1.5"/>
<circle cx="44" cy="42" r="5.25" stroke="#3f51b5" stroke-width="1.5"/>
</svg>
