<svg width="88" height="88" viewBox="0 0 88 88" fill="none" xmlns="http://www.w3.org/2000/svg">
<path d="M2.63098 50.3517C-0.876996 46.8438 -0.876992 41.1562 2.63098 37.6482L37.6483 2.63098C41.1562 -0.876997 46.8438 -0.876991 50.3518 2.63098L85.369 37.6483C88.877 41.1562 88.877 46.8438 85.369 50.3518L50.3517 85.369C46.8438 88.877 41.1562 88.877 37.6482 85.369L2.63098 50.3517Z" fill="#7a89fe" fill-opacity="0.15"/>
<path d="M27 31.2759L31 27L35 31.2759V58H27V31.2759Z" stroke="#3f51b5" stroke-width="1.5"/>
<path d="M40 31.2759L44 27L48 31.2759V58H40V31.2759Z" stroke="#3f51b5" stroke-width="1.5"/>
<path d="M53 31.2759L57 27L61 31.2759V58H53V31.2759Z" stroke="#3f51b5" stroke-width="1.5"/>
<path d="M24 40H64" stroke="#3f51b5" stroke-width="1.5"/>
<path d="M24 48H64" stroke="#3f51b5" stroke-width="1.5"/>
</svg>
