<svg width="17" height="20" viewBox="0 0 17 20" fill="none" xmlns="http://www.w3.org/2000/svg">
<path d="M9.64551 19.7144C9.75618 19.7144 9.84749 19.6784 9.91943 19.6064C9.99137 19.54 10.0384 19.4487 10.0605 19.3325C10.1768 18.425 10.3068 17.6585 10.4507 17.0332C10.6001 16.4079 10.7938 15.8932 11.0317 15.4893C11.2752 15.0853 11.5962 14.7643 11.9946 14.5264C12.3931 14.2829 12.8994 14.092 13.5137 13.9536C14.1279 13.8153 14.8861 13.6963 15.7881 13.5967C15.9043 13.5856 15.9984 13.5413 16.0703 13.4639C16.1423 13.3864 16.1782 13.2923 16.1782 13.1816C16.1782 13.0765 16.1423 12.9852 16.0703 12.9077C15.9984 12.8302 15.9043 12.786 15.7881 12.7749C14.8861 12.6753 14.1279 12.5563 13.5137 12.418C12.8994 12.2796 12.3931 12.0887 11.9946 11.8452C11.5962 11.6017 11.2752 11.278 11.0317 10.874C10.7938 10.4701 10.6001 9.95817 10.4507 9.33838C10.3068 8.71305 10.1768 7.94385 10.0605 7.03076C10.0384 6.92008 9.99137 6.83154 9.91943 6.76514C9.84749 6.6932 9.75618 6.65723 9.64551 6.65723C9.54036 6.65723 9.44906 6.6932 9.37158 6.76514C9.29964 6.83154 9.25537 6.92008 9.23877 7.03076C9.12256 7.94385 8.98975 8.71305 8.84033 9.33838C8.69645 9.95817 8.50277 10.4701 8.25928 10.874C8.01579 11.278 7.69482 11.6017 7.29639 11.8452C6.89795 12.0887 6.3916 12.2796 5.77734 12.418C5.16309 12.5563 4.40771 12.6753 3.51123 12.7749C3.38949 12.786 3.29264 12.8302 3.2207 12.9077C3.14876 12.9852 3.11279 13.0765 3.11279 13.1816C3.11279 13.2923 3.14876 13.3864 3.2207 13.4639C3.29264 13.5413 3.38949 13.5856 3.51123 13.5967C4.40771 13.7129 5.16032 13.8457 5.76904 13.9951C6.3833 14.139 6.88688 14.3299 7.27979 14.5679C7.67822 14.8058 7.99919 15.124 8.24268 15.5225C8.48617 15.9209 8.67985 16.4272 8.82373 17.0415C8.97314 17.6613 9.11149 18.425 9.23877 19.3325C9.25537 19.4487 9.29964 19.54 9.37158 19.6064C9.44906 19.6784 9.54036 19.7144 9.64551 19.7144ZM4.01758 10.5337C4.09505 10.5337 4.15869 10.5088 4.2085 10.459C4.2583 10.4092 4.28874 10.3483 4.2998 10.2764C4.37174 9.72298 4.44645 9.29134 4.52393 8.98145C4.6014 8.67155 4.72038 8.43913 4.88086 8.28418C5.04687 8.1237 5.29036 8.00195 5.61133 7.91895C5.93783 7.8304 6.38883 7.73079 6.96436 7.62012C7.13037 7.58691 7.21338 7.49284 7.21338 7.33789C7.21338 7.26042 7.18848 7.19678 7.13867 7.14697C7.0944 7.09717 7.0363 7.0695 6.96436 7.06396C6.38883 6.98096 5.93783 6.90072 5.61133 6.82324C5.28483 6.74577 5.03857 6.62679 4.87256 6.46631C4.71208 6.30029 4.5931 6.0568 4.51562 5.73584C4.44368 5.41488 4.37174 4.97493 4.2998 4.41602C4.27767 4.23893 4.18359 4.15039 4.01758 4.15039C3.85156 4.15039 3.75749 4.2417 3.73535 4.42432C3.66895 4.9777 3.59701 5.40934 3.51953 5.71924C3.44206 6.0236 3.32031 6.25326 3.1543 6.4082C2.98828 6.56315 2.74202 6.6849 2.41553 6.77344C2.08903 6.85645 1.64079 6.95329 1.0708 7.06396C0.904785 7.09163 0.821777 7.18294 0.821777 7.33789C0.821777 7.49837 0.915853 7.59245 1.104 7.62012C1.66846 7.71419 2.11117 7.80273 2.43213 7.88574C2.75863 7.96875 3.00212 8.09049 3.1626 8.25098C3.32861 8.40592 3.44759 8.64111 3.51953 8.95654C3.59701 9.27197 3.66895 9.70638 3.73535 10.2598C3.75749 10.4424 3.85156 10.5337 4.01758 10.5337ZM8.03516 4.82275C8.13477 4.82275 8.19564 4.76742 8.21777 4.65674C8.27865 4.31917 8.33398 4.05355 8.38379 3.85986C8.43359 3.66618 8.50553 3.51953 8.59961 3.41992C8.69922 3.31478 8.84863 3.23177 9.04785 3.1709C9.24707 3.11003 9.52653 3.04915 9.88623 2.98828C9.99691 2.96615 10.0522 2.90251 10.0522 2.79736C10.0522 2.69775 9.99691 2.63688 9.88623 2.61475C9.52653 2.54834 9.24707 2.48747 9.04785 2.43213C8.84863 2.37126 8.69922 2.29102 8.59961 2.19141C8.50553 2.08626 8.43359 1.93685 8.38379 1.74316C8.33398 1.54948 8.27865 1.28385 8.21777 0.946289C8.19564 0.835612 8.13477 0.780273 8.03516 0.780273C7.93001 0.780273 7.86914 0.835612 7.85254 0.946289C7.78613 1.28385 7.72803 1.54948 7.67822 1.74316C7.63395 1.93685 7.56201 2.08626 7.4624 2.19141C7.36833 2.29102 7.22168 2.37126 7.02246 2.43213C6.82324 2.48747 6.54378 2.54834 6.18408 2.61475C6.0734 2.63688 6.01807 2.69775 6.01807 2.79736C6.01807 2.90251 6.0734 2.96615 6.18408 2.98828C6.54378 3.04915 6.82324 3.11003 7.02246 3.1709C7.22168 3.23177 7.36833 3.31478 7.4624 3.41992C7.56201 3.51953 7.63395 3.66618 7.67822 3.85986C7.72803 4.05355 7.78613 4.31917 7.85254 4.65674C7.86914 4.76742 7.93001 4.82275 8.03516 4.82275Z" fill="white" fill-opacity="0.6"/>
</svg>
