<svg width="17" height="18" viewBox="0 0 17 18" fill="none" xmlns="http://www.w3.org/2000/svg">
<path opacity="0.5" d="M8.5 17.4736C7.34342 17.4736 6.25326 17.2523 5.22949 16.8096C4.21126 16.3669 3.31201 15.7554 2.53174 14.9751C1.75146 14.1948 1.13997 13.2956 0.697266 12.2773C0.254557 11.2536 0.0332031 10.1634 0.0332031 9.00684C0.0332031 7.85026 0.254557 6.76286 0.697266 5.74463C1.13997 4.72087 1.7487 3.81885 2.52344 3.03857C3.30371 2.2583 4.20296 1.64681 5.22119 1.2041C6.24495 0.761393 7.33512 0.540039 8.4917 0.540039C9.64827 0.540039 10.7384 0.761393 11.7622 1.2041C12.786 1.64681 13.688 2.2583 14.4683 3.03857C15.2485 3.81885 15.86 4.72087 16.3027 5.74463C16.7454 6.76286 16.9668 7.85026 16.9668 9.00684C16.9668 10.1634 16.7454 11.2536 16.3027 12.2773C15.86 13.2956 15.2485 14.1948 14.4683 14.9751C13.688 15.7554 12.786 16.3669 11.7622 16.8096C10.744 17.2523 9.65658 17.4736 8.5 17.4736ZM8.5 16.0625C9.47949 16.0625 10.3953 15.8799 11.2476 15.5146C12.0998 15.1494 12.8496 14.6458 13.4971 14.0039C14.1445 13.3564 14.6481 12.6066 15.0078 11.7544C15.373 10.9022 15.5557 9.98633 15.5557 9.00684C15.5557 8.02734 15.373 7.11149 15.0078 6.25928C14.6426 5.40706 14.1362 4.65723 13.4888 4.00977C12.8468 3.3623 12.097 2.85872 11.2393 2.49902C10.387 2.13379 9.47119 1.95117 8.4917 1.95117C7.51221 1.95117 6.59635 2.13379 5.74414 2.49902C4.89193 2.85872 4.14486 3.3623 3.50293 4.00977C2.861 4.65723 2.35742 5.40706 1.99219 6.25928C1.63249 7.11149 1.45264 8.02734 1.45264 9.00684C1.45264 9.98633 1.63249 10.9022 1.99219 11.7544C2.35742 12.6066 2.861 13.3564 3.50293 14.0039C4.15039 14.6458 4.90023 15.1494 5.75244 15.5146C6.60465 15.8799 7.52051 16.0625 8.5 16.0625ZM6.94775 12.2524C6.75407 12.3687 6.56592 12.3908 6.3833 12.3188C6.20622 12.2414 6.11768 12.1003 6.11768 11.8955L6.11768 6.12646C6.11768 5.92725 6.21175 5.79167 6.3999 5.71973C6.58805 5.64779 6.77067 5.66439 6.94775 5.76953L11.6792 8.5752C11.8452 8.6748 11.9282 8.82145 11.9282 9.01514C11.9338 9.20882 11.8507 9.35824 11.6792 9.46338L6.94775 12.2524Z" fill="url(#paint0_linear_660_5512)"/>
<defs>
<linearGradient id="paint0_linear_660_5512" x1="-1.5" y1="-1" x2="19.9305" y2="21.9612" gradientUnits="userSpaceOnUse">
<stop/>
<stop offset="1" stop-opacity="0.5"/>
</linearGradient>
</defs>
</svg>
