<svg width="18" height="22" viewBox="0 0 18 22" fill="none" xmlns="http://www.w3.org/2000/svg">
<path fill-rule="evenodd" clip-rule="evenodd" d="M6.51564 1.99837H2C1.0335 1.99837 0.25 2.78188 0.25 3.74837V19.7484C0.25 20.7149 1.0335 21.4984 2 21.4984H16C16.9665 21.4984 17.75 20.7149 17.75 19.7484V3.74837C17.75 2.78188 16.9665 1.99837 16 1.99837H10.4845C10.3612 1.01211 9.51977 0.249023 8.50009 0.249023C7.48041 0.249023 6.63896 1.01211 6.51564 1.99837ZM7.53176 1.99837C7.643 1.56739 8.03437 1.24902 8.50009 1.24902C8.96581 1.24902 9.35717 1.56739 9.46841 1.99837H7.53176ZM2 3.49837C1.86193 3.49837 1.75 3.6103 1.75 3.74837V6.99837H2H13H13.75V8.49837H13H2H1.75V10.9984H2H13H13.75V12.4984H13H2H1.75V14.9984H2H13H13.75V15.7484V19.7484V19.9984H16C16.1381 19.9984 16.25 19.8864 16.25 19.7484V3.74837C16.25 3.6103 16.1381 3.49837 16 3.49837H2ZM1.75 19.7484V16.4984H2H12.25V19.7484V19.9984H2C1.86193 19.9984 1.75 19.8864 1.75 19.7484Z" fill="white" fill-opacity="0.6"/>
</svg>
