<svg width="18" height="18" viewBox="0 0 18 18" fill="none" xmlns="http://www.w3.org/2000/svg">
<path d="M9 17.9011C4.37646 17.9011 0.533203 14.0579 0.533203 9.43433C0.533203 4.80249 4.36816 0.967529 8.9917 0.967529C13.6235 0.967529 17.4668 4.80249 17.4668 9.43433C17.4668 14.0579 13.6318 17.9011 9 17.9011ZM9 16.49C12.918 16.49 16.0557 13.3523 16.0557 9.43433C16.0557 5.51636 12.9097 2.37866 8.9917 2.37866C5.07373 2.37866 1.95264 5.51636 1.95264 9.43433C1.95264 13.3523 5.08203 16.49 9 16.49ZM6.10303 11.991C5.70459 11.991 5.53857 11.5178 5.75439 11.1609L8.55176 6.42944C8.75098 6.08911 9.23242 6.07251 9.44824 6.42944L12.229 11.1609C12.4614 11.551 12.2871 11.991 11.8887 11.991L6.10303 11.991Z" fill="url(#paint0_linear_669_3482)" style="mix-blend-mode:overlay"/>
<defs>
<linearGradient id="paint0_linear_669_3482" x1="9" y1="-0.57251" x2="9" y2="19.4275" gradientUnits="userSpaceOnUse">
<stop stop-color="white" stop-opacity="0.8"/>
<stop offset="1" stop-color="white" stop-opacity="0.3"/>
</linearGradient>
</defs>
</svg>
