<svg width="48" height="48" viewBox="0 0 48 48" fill="none" xmlns="http://www.w3.org/2000/svg">
    <rect width="48" height="48" rx="10" />
    <path
        d="M10.7923 45.0768C11.0349 44.9566 11.1902 44.7114 11.1902 44.4422C11.1902 44.173 11.0349 43.9278 10.7923 43.8076L5.03826 40.9518C4.81508 40.8413 4.55309 40.8557 4.33962 40.9855C4.12614 41.1153 4 41.3461 4 41.5912L4 47.2883C4 47.5335 4.131 47.7643 4.33962 47.8941C4.55309 48.0239 4.81508 48.0335 5.03826 47.9277L10.7923 45.0768ZM5.4361 42.7403L8.86623 44.4374L5.4361 46.1345L5.4361 42.7403ZM25.0951 44.4374C25.0951 43.4903 24.7167 42.5864 24.0423 41.9182C23.3679 41.2499 22.4509 40.8749 21.5 40.8749C20.5491 40.8749 19.6321 41.2499 18.9577 41.9182C18.2833 42.5864 17.9049 43.4951 17.9049 44.4374C17.9049 45.3797 18.2833 46.2883 18.9577 46.9566C19.6321 47.6249 20.5491 47.9999 21.5 47.9999C22.4509 47.9999 23.3679 47.6249 24.0423 46.9566C24.7167 46.2883 25.0951 45.3845 25.0951 44.4374ZM19.341 44.4374C19.341 43.8701 19.569 43.3268 19.9717 42.923C20.3744 42.5239 20.9275 42.298 21.5 42.298C22.0725 42.298 22.6207 42.5239 23.0283 42.923C23.431 43.322 23.659 43.8701 23.659 44.4374C23.659 45.0047 23.431 45.5479 23.0283 45.9518C22.6256 46.3508 22.0725 46.5768 21.5 46.5768C20.9275 46.5768 20.3793 46.3508 19.9717 45.9518C19.569 45.5528 19.341 45.0047 19.341 44.4374ZM39 47.2883L39 41.5864C39 41.1922 38.6798 40.8749 38.282 40.8749L32.5279 40.8749C32.13 40.8749 31.8098 41.1922 31.8098 41.5864L31.8098 47.2883C31.8098 47.6825 32.13 47.9999 32.5279 47.9999L38.282 47.9999C38.6798 47.9999 39 47.6825 39 47.2883ZM33.2459 46.5768L33.2459 42.298L37.5639 42.298L37.5639 46.5768L33.2459 46.5768ZM34.6869 35.173L22.218 35.173L22.218 39.2115C22.218 39.6057 21.8978 39.923 21.5 39.923C21.1022 39.923 20.782 39.6057 20.782 39.2115L20.782 35.173L8.31314 35.173L8.31314 39.2115C8.31314 39.6057 7.99293 39.923 7.59509 39.923C7.19726 39.923 6.87704 39.6057 6.87704 39.2115L6.87704 34.4615C6.87704 34.0673 7.19725 33.75 7.59509 33.75L20.782 33.75L20.782 29.7115C20.782 29.3173 21.1022 29 21.5 29C21.8978 29 22.218 29.3173 22.218 29.7115L22.218 33.75L35.4049 33.75C35.8027 33.75 36.123 34.0673 36.123 34.4615L36.123 39.2115C36.123 39.6057 35.8027 39.923 35.4049 39.923C35.0071 39.923 34.6869 39.6057 34.6869 39.2115L34.6869 35.173Z"
        fill="white" />
    <path
        d="M21.9898 26.6701C20.2759 26.6701 18.7418 26.2919 17.3792 25.527C16.0252 24.7621 14.9539 23.7136 14.1741 22.3729C13.3942 21.0322 13 19.511 13 17.8179C13 16.1248 13.3942 14.5778 14.1741 13.2628C14.9539 11.9479 16.0166 10.908 17.3621 10.1431C18.7076 9.37815 20.2501 9 21.9898 9C23.7295 9 25.2378 9.37815 26.6005 10.1259C27.9545 10.8736 29.0172 11.9135 29.7885 13.2456C30.5598 14.5778 30.9454 16.099 30.9454 17.8179C30.9454 19.5367 30.5598 21.0579 29.7885 22.3901C29.0172 23.7222 27.9545 24.7621 26.6005 25.527C25.2464 26.2919 23.7038 26.6701 21.9898 26.6701ZM21.9898 23.9285C23.0954 23.9285 24.0895 23.6792 24.9722 23.1808C25.8549 22.6823 26.5405 21.9689 27.0375 21.0408C27.5346 20.1126 27.7831 19.0469 27.7831 17.8264C27.7831 16.606 27.5346 15.5146 27.0375 14.6121C26.5405 13.7097 25.8463 13.005 24.9722 12.5065C24.0895 12.008 23.0954 11.7588 21.9898 11.7588C20.8843 11.7588 19.8988 12.008 19.0246 12.5065C18.1591 13.005 17.4649 13.7097 16.9422 14.6121C16.4194 15.5146 16.1623 16.5889 16.1623 17.8264C16.1623 19.064 16.4194 20.1212 16.9422 21.0408C17.4649 21.9689 18.1591 22.6823 19.0246 23.1808C19.8902 23.6792 20.8843 23.9285 21.9898 23.9285Z"
        fill="white" />
</svg>